<?xml version="1.0" encoding="UTF-8" standalone="no"?>
<!-- Created with Inkscape (http://www.inkscape.org/) -->

<svg
   xmlns:dc="http://purl.org/dc/elements/1.1/"
   xmlns:cc="http://creativecommons.org/ns#"
   xmlns:rdf="http://www.w3.org/1999/02/22-rdf-syntax-ns#"
   xmlns:svg="http://www.w3.org/2000/svg"
   xmlns="http://www.w3.org/2000/svg"
   xmlns:sodipodi="http://sodipodi.sourceforge.net/DTD/sodipodi-0.dtd"
   xmlns:inkscape="http://www.inkscape.org/namespaces/inkscape"
   width="213.23531mm"
   height="58.844296mm"
   viewBox="0 0 213.23531 58.844295"
   version="1.1"
   id="svg8"
   inkscape:version="0.92.4 (33fec40, 2019-01-16)"
   sodipodi:docname="anagrama.svg">
  <defs
     id="defs2">
    <clipPath
       id="clipPath19298-68-9-0"
       clipPathUnits="userSpaceOnUse">
      <path
         inkscape:connector-curvature="0"
         id="path19296-07-3-2"
         d="M 0,3330.786 H 1536 V 0 H 0 Z" />
    </clipPath>
    <clipPath
       id="clipPath19298-68-9"
       clipPathUnits="userSpaceOnUse">
      <path
         inkscape:connector-curvature="0"
         id="path19296-07-3"
         d="M 0,3330.786 H 1536 V 0 H 0 Z" />
    </clipPath>
  </defs>
  <sodipodi:namedview
     id="base"
     pagecolor="#ffffff"
     bordercolor="#666666"
     borderopacity="1.0"
     inkscape:pageopacity="0.0"
     inkscape:pageshadow="2"
     inkscape:zoom="0.35"
     inkscape:cx="217.35745"
     inkscape:cy="516.68925"
     inkscape:document-units="mm"
     inkscape:current-layer="layer1"
     showgrid="false"
     inkscape:window-width="1853"
     inkscape:window-height="1025"
     inkscape:window-x="67"
     inkscape:window-y="1107"
     inkscape:window-maximized="1" />
  <metadata
     id="metadata5">
    <rdf:RDF>
      <cc:Work
         rdf:about="">
        <dc:format>image/svg+xml</dc:format>
        <dc:type
           rdf:resource="http://purl.org/dc/dcmitype/StillImage" />
        <dc:title></dc:title>
      </cc:Work>
    </rdf:RDF>
  </metadata>
  <g
     inkscape:label="Capa 1"
     inkscape:groupmode="layer"
     id="layer1"
     transform="translate(127.81273,-196.45831)">
    <g
       id="g19292-8-2"
       transform="matrix(1.3770857,0,0,-1.3770857,-1172.222,338.35363)"
       style="fill:#404041;fill-opacity:1">
      <g
         id="g19294-5-1"
         clip-path="url(#clipPath19298-68-9)"
         style="fill:#404041;fill-opacity:1">
        <g
           id="g19300-9-2"
           transform="translate(758.9443,101.654)"
           style="fill:#404041;fill-opacity:1">
          <path
             d="m 0,0 h 2.35 c 0.276,0 0.501,-0.224 0.501,-0.5 v -22.15 c 0,-0.276 0.224,-0.5 0.5,-0.5 h 10.093 c 0.276,0 0.5,-0.225 0.5,-0.501 v -1.811 c 0,-0.277 -0.224,-0.501 -0.5,-0.501 H 0 c -0.276,0 -0.5,0.224 -0.5,0.501 V -0.5 C -0.5,-0.224 -0.276,0 0,0"
             style="fill:#404041;fill-opacity:1;fill-rule:nonzero;stroke:none"
             id="path19302-6-57"
             inkscape:connector-curvature="0" />
        </g>
        <g
           id="g19304-6-3"
           transform="translate(787.2861,86.8239)"
           style="fill:#404041;fill-opacity:1">
          <path
             d="M 0,0 C 0.29,0 0.518,0.243 0.501,0.533 0.386,2.667 -0.676,5.508 -4.188,5.508 -7.329,5.508 -8.853,2.857 -9.294,0.606 -9.355,0.293 -9.122,0 -8.802,0 Z m -8.901,-2.427 c -0.286,0 -0.523,-0.242 -0.503,-0.528 0.285,-4.202 3.115,-5.943 6.372,-5.943 2.101,0 3.48,0.317 4.637,0.752 0.281,0.105 0.589,-0.061 0.659,-0.353 l 0.345,-1.452 c 0.058,-0.245 -0.075,-0.49 -0.309,-0.584 -1.229,-0.49 -3.142,-0.983 -5.795,-0.983 -5.739,0 -9.167,3.775 -9.167,9.399 0,5.624 3.312,10.054 8.744,10.054 6.086,0 7.704,-5.354 7.704,-8.783 0,-0.446 -0.032,-0.829 -0.065,-1.137 C 3.693,-2.239 3.479,-2.427 3.224,-2.427 Z"
             style="fill:#404041;fill-opacity:1;fill-rule:nonzero;stroke:none"
             id="path19306-17-5"
             inkscape:connector-curvature="0" />
        </g>
        <g
           id="g19308-5-0"
           transform="translate(805.0942,84.7087)"
           style="fill:#404041;fill-opacity:1">
          <path
             d="m 0,0 c 0,0.275 -0.221,0.502 -0.496,0.502 -3.567,0.008 -7.4,-0.744 -7.4,-4.204 0,-2.195 1.463,-3.235 3.197,-3.235 2.427,0 3.967,1.54 4.507,3.12 C -0.077,-3.471 0,-3.085 0,-2.738 Z m 0.947,-9.018 c -0.254,0 -0.468,0.191 -0.497,0.444 L 0.231,-6.667 H 0.116 c -1.04,-1.464 -3.043,-2.774 -5.701,-2.774 -3.775,0 -5.701,2.658 -5.701,5.354 0,4.507 4.006,6.972 11.209,6.934 v 0.385 c 0,1.541 -0.423,4.314 -4.237,4.314 -1.523,0 -3.105,-0.416 -4.355,-1.092 C -8.936,6.31 -9.268,6.45 -9.367,6.737 L -9.806,8.01 c -0.077,0.223 0.007,0.476 0.212,0.594 1.519,0.882 3.6,1.446 5.781,1.446 5.701,0 7.087,-3.89 7.087,-7.627 v -6.972 c 0,-1.382 0.057,-2.736 0.217,-3.893 0.042,-0.305 -0.186,-0.576 -0.493,-0.576 z"
             style="fill:#404041;fill-opacity:1;fill-rule:nonzero;stroke:none"
             id="path19310-5-1"
             inkscape:connector-curvature="0" />
        </g>
        <g
           id="g19312-63-5"
           transform="translate(813.8398,89.2893)"
           style="fill:#404041;fill-opacity:1">
          <path
             d="m 0,0 c 0,1.704 -0.03,3.138 -0.117,4.514 -0.018,0.288 0.209,0.532 0.498,0.532 h 2 C 2.645,5.046 2.864,4.84 2.88,4.577 L 3.043,1.964 h 0.078 c 0.924,1.772 3.081,3.506 6.163,3.506 2.581,0 6.587,-1.541 6.587,-7.935 v -10.633 c 0,-0.276 -0.225,-0.5 -0.501,-0.5 h -2.389 c -0.276,0 -0.5,0.224 -0.5,0.5 v 10.247 c 0,3.005 -1.118,5.509 -4.314,5.509 C 5.932,2.658 4.199,1.079 3.621,-0.809 3.467,-1.233 3.39,-1.811 3.39,-2.388 v -10.71 c 0,-0.276 -0.224,-0.5 -0.5,-0.5 H 0.5 c -0.276,0 -0.5,0.224 -0.5,0.5 z"
             style="fill:#404041;fill-opacity:1;fill-rule:nonzero;stroke:none"
             id="path19314-0-8"
             inkscape:connector-curvature="0" />
        </g>
        <g
           id="g19316-2-6"
           transform="translate(857.2153,87.093)"
           style="fill:#404041;fill-opacity:1">
          <path
             d="M 0,0 C -0.192,3.621 -0.424,7.974 -0.385,11.21 H -0.501 C -1.387,8.167 -2.465,4.931 -3.774,1.349 l -4.465,-12.267 c -0.072,-0.198 -0.26,-0.33 -0.47,-0.33 h -1.833 c -0.215,0 -0.405,0.137 -0.475,0.34 L -15.1,1.117 c -1.233,3.66 -2.273,7.011 -3.004,10.093 h -0.078 c -0.076,-3.236 -0.269,-7.589 -0.501,-11.479 l -0.663,-10.663 c -0.017,-0.264 -0.236,-0.47 -0.5,-0.47 h -2.19 c -0.29,0 -0.519,0.246 -0.499,0.535 l 1.74,24.963 c 0.019,0.262 0.236,0.465 0.5,0.465 h 3.455 c 0.212,0 0.401,-0.134 0.471,-0.334 l 4.312,-12.224 c 1.079,-3.196 1.965,-6.047 2.619,-8.744 h 0.116 c 0.655,2.62 1.58,5.47 2.735,8.744 l 4.502,12.23 c 0.072,0.197 0.26,0.328 0.469,0.328 h 3.457 c 0.264,0 0.483,-0.206 0.5,-0.469 L 3.896,-10.87 c 0.018,-0.288 -0.211,-0.532 -0.5,-0.532 H 1.128 c -0.265,0 -0.484,0.207 -0.5,0.472 z"
             style="fill:#404041;fill-opacity:1;fill-rule:nonzero;stroke:none"
             id="path19318-5-7"
             inkscape:connector-curvature="0" />
        </g>
        <g
           id="g19320-9-1"
           transform="translate(866.6553,76.1916)"
           style="fill:#404041;fill-opacity:1">
          <path
             d="m 0,0 v 17.643 c 0,0.276 0.224,0.501 0.5,0.501 h 2.389 c 0.277,0 0.501,-0.225 0.501,-0.501 L 3.39,0 c 0,-0.276 -0.224,-0.5 -0.501,-0.5 H 0.5 C 0.224,-0.5 0,-0.276 0,0 m 3.774,23.382 c 0.039,-1.155 -0.808,-2.08 -2.156,-2.08 -1.194,0 -2.042,0.925 -2.042,2.08 0,1.194 0.886,2.119 2.118,2.119 1.272,0 2.08,-0.925 2.08,-2.119"
             style="fill:#404041;fill-opacity:1;fill-rule:nonzero;stroke:none"
             id="path19322-8-9"
             inkscape:connector-curvature="0" />
        </g>
        <g
           id="g19324-2-0"
           transform="translate(875.6694,89.2893)"
           style="fill:#404041;fill-opacity:1">
          <path
             d="M 0,0 C 0,1.704 -0.03,3.138 -0.118,4.513 -0.136,4.802 0.091,5.046 0.38,5.046 h 2 c 0.264,0 0.483,-0.206 0.499,-0.469 L 3.043,1.964 H 3.12 c 0.924,1.772 3.081,3.506 6.164,3.506 2.58,0 6.586,-1.541 6.586,-7.935 v -10.633 c 0,-0.276 -0.224,-0.5 -0.5,-0.5 h -2.39 c -0.276,0 -0.5,0.224 -0.5,0.5 v 10.247 c 0,3.005 -1.117,5.509 -4.314,5.509 C 5.932,2.658 4.198,1.079 3.621,-0.809 3.467,-1.233 3.39,-1.811 3.39,-2.388 v -10.71 c 0,-0.276 -0.224,-0.5 -0.5,-0.5 H 0.5 c -0.276,0 -0.5,0.224 -0.5,0.5 z"
             style="fill:#404041;fill-opacity:1;fill-rule:nonzero;stroke:none"
             id="path19326-3-2"
             inkscape:connector-curvature="0" />
        </g>
        <g
           id="g19328-8-3"
           transform="translate(909.7612,86.7463)"
           style="fill:#404041;fill-opacity:1">
          <path
             d="m 0,0 c 0,0.424 -0.039,1.001 -0.154,1.425 -0.5,2.158 -2.349,3.929 -4.892,3.929 -3.505,0 -5.585,-3.081 -5.585,-7.203 0,-3.775 1.849,-6.895 5.508,-6.895 2.273,0 4.353,1.503 4.969,4.045 C -0.039,-4.237 0,-3.774 0,-3.235 Z m 2.89,16.294 c 0.276,0 0.5,-0.224 0.5,-0.501 V -6.24 c 0,-1.44 0.029,-3.053 0.113,-4.285 0.019,-0.288 -0.211,-0.53 -0.5,-0.53 H 0.978 c -0.267,0 -0.487,0.21 -0.5,0.477 L 0.347,-7.819 H 0.27 c -1.04,-2.081 -3.313,-3.66 -6.356,-3.66 -4.506,0 -7.973,3.814 -7.973,9.476 -0.039,6.202 3.813,10.016 8.359,10.016 2.85,0 4.776,-1.349 5.623,-2.851 H 0 v 10.631 c 0,0.277 0.224,0.501 0.5,0.501 z"
             style="fill:#404041;fill-opacity:1;fill-rule:nonzero;stroke:none"
             id="path19330-6-9"
             inkscape:connector-curvature="0" />
        </g>
      </g>
    </g>
    <g
       transform="translate(-542.85652,-203.93219)"
       aria-label="EFFICIENT PEOPLE"
       style="font-style:normal;font-variant:normal;font-weight:normal;font-stretch:normal;font-size:14.8166666px;font-family:'Myriad Pro';-inkscape-font-specification:'Myriad Pro, Normal';font-variant-ligatures:normal;font-variant-caps:normal;font-variant-numeric:normal;font-feature-settings:normal;text-align:start;writing-mode:lr-tb;text-anchor:start;fill:#6d6e70;fill-opacity:1;fill-rule:nonzero;stroke:none;stroke-width:1.3770858"
       id="text19386-0-8">
      <path
         inkscape:connector-curvature="0"
         d="m 420.21481,453.32294 h -3.88197 v -3.15595 h 4.10422 v -1.08162 h -5.39327 v 9.98644 h 5.61552 v -1.08162 h -4.32647 v -3.60045 h 3.88197 z"
         style="font-style:normal;font-variant:normal;font-weight:normal;font-stretch:normal;font-size:14.8166666px;line-height:24.20000076px;font-family:'Myriad Pro';-inkscape-font-specification:'Myriad Pro, Normal';font-variant-ligatures:normal;font-variant-caps:normal;font-variant-numeric:normal;font-feature-settings:normal;text-align:start;writing-mode:lr-tb;text-anchor:start;fill:#6d6e70;fill-opacity:1;stroke-width:1.3770858"
         id="path5839" />
      <path
         inkscape:connector-curvature="0"
         d="m 429.15842,459.07181 h 1.28905 v -4.51909 h 3.77825 v -1.0668 h -3.77825 v -3.31893 h 4.0894 v -1.08162 h -5.37845 z"
         style="font-style:normal;font-variant:normal;font-weight:normal;font-stretch:normal;font-size:14.8166666px;line-height:24.20000076px;font-family:'Myriad Pro';-inkscape-font-specification:'Myriad Pro, Normal';font-variant-ligatures:normal;font-variant-caps:normal;font-variant-numeric:normal;font-feature-settings:normal;text-align:start;writing-mode:lr-tb;text-anchor:start;fill:#6d6e70;fill-opacity:1;stroke-width:1.3770858"
         id="path5841" />
      <path
         inkscape:connector-curvature="0"
         d="m 443.19821,459.07181 h 1.28905 v -4.51909 h 3.77825 v -1.0668 h -3.77825 v -3.31893 h 4.0894 v -1.08162 h -5.37845 z"
         style="font-style:normal;font-variant:normal;font-weight:normal;font-stretch:normal;font-size:14.8166666px;line-height:24.20000076px;font-family:'Myriad Pro';-inkscape-font-specification:'Myriad Pro, Normal';font-variant-ligatures:normal;font-variant-caps:normal;font-variant-numeric:normal;font-feature-settings:normal;text-align:start;writing-mode:lr-tb;text-anchor:start;fill:#6d6e70;fill-opacity:1;stroke-width:1.3770858"
         id="path5843" />
      <path
         inkscape:connector-curvature="0"
         d="m 457.23807,449.08537 v 9.98644 h 1.28905 v -9.98644 z"
         style="font-style:normal;font-variant:normal;font-weight:normal;font-stretch:normal;font-size:14.8166666px;line-height:24.20000076px;font-family:'Myriad Pro';-inkscape-font-specification:'Myriad Pro, Normal';font-variant-ligatures:normal;font-variant-caps:normal;font-variant-numeric:normal;font-feature-settings:normal;text-align:start;writing-mode:lr-tb;text-anchor:start;fill:#6d6e70;fill-opacity:1;stroke-width:1.3770858"
         id="path5845" />
      <path
         inkscape:connector-curvature="0"
         d="m 474.27759,457.72349 c -0.51858,0.25188 -1.31868,0.41487 -2.10396,0.41487 -2.42994,0 -3.83752,-1.57057 -3.83752,-4.01532 0,-2.62255 1.55575,-4.11903 3.89678,-4.11903 0.82974,0 1.52612,0.1778 2.01507,0.41486 l 0.31115,-1.05198 c -0.34078,-0.1778 -1.12607,-0.4445 -2.37067,-0.4445 -3.09668,0 -5.21546,2.11878 -5.21546,5.2451 0,3.27448 2.11878,5.05248 4.93395,5.05248 1.21496,0 2.16323,-0.23706 2.63736,-0.47413 z"
         style="font-style:normal;font-variant:normal;font-weight:normal;font-stretch:normal;font-size:14.8166666px;line-height:24.20000076px;font-family:'Myriad Pro';-inkscape-font-specification:'Myriad Pro, Normal';font-variant-ligatures:normal;font-variant-caps:normal;font-variant-numeric:normal;font-feature-settings:normal;text-align:start;writing-mode:lr-tb;text-anchor:start;fill:#6d6e70;fill-opacity:1;stroke-width:1.3770858"
         id="path5847" />
      <path
         inkscape:connector-curvature="0"
         d="m 482.99759,449.08537 v 9.98644 h 1.28905 v -9.98644 z"
         style="font-style:normal;font-variant:normal;font-weight:normal;font-stretch:normal;font-size:14.8166666px;line-height:24.20000076px;font-family:'Myriad Pro';-inkscape-font-specification:'Myriad Pro, Normal';font-variant-ligatures:normal;font-variant-caps:normal;font-variant-numeric:normal;font-feature-settings:normal;text-align:start;writing-mode:lr-tb;text-anchor:start;fill:#6d6e70;fill-opacity:1;stroke-width:1.3770858"
         id="path5849" />
      <path
         inkscape:connector-curvature="0"
         d="m 498.49636,453.32294 h -3.88196 v -3.15595 h 4.10421 v -1.08162 h -5.39326 v 9.98644 h 5.61551 v -1.08162 h -4.32646 v -3.60045 h 3.88196 z"
         style="font-style:normal;font-variant:normal;font-weight:normal;font-stretch:normal;font-size:14.8166666px;line-height:24.20000076px;font-family:'Myriad Pro';-inkscape-font-specification:'Myriad Pro, Normal';font-variant-ligatures:normal;font-variant-caps:normal;font-variant-numeric:normal;font-feature-settings:normal;text-align:start;writing-mode:lr-tb;text-anchor:start;fill:#6d6e70;fill-opacity:1;stroke-width:1.3770858"
         id="path5851" />
      <path
         inkscape:connector-curvature="0"
         d="m 508.65494,459.07181 v -4.2672 c 0,-1.65947 -0.0296,-2.85962 -0.10372,-4.11904 l 0.0444,-0.0148 c 0.50377,1.08161 1.17052,2.2225 1.8669,3.33375 l 3.17077,5.0673 h 1.30386 v -9.98644 h -1.21496 v 4.1783 c 0,1.55575 0.0296,2.77072 0.14816,4.10422 l -0.0296,0.0148 c -0.47413,-1.02235 -1.05198,-2.07434 -1.79282,-3.24485 l -3.2004,-5.05249 h -1.40758 v 9.98644 z"
         style="font-style:normal;font-variant:normal;font-weight:normal;font-stretch:normal;font-size:14.8166666px;line-height:24.20000076px;font-family:'Myriad Pro';-inkscape-font-specification:'Myriad Pro, Normal';font-variant-ligatures:normal;font-variant-caps:normal;font-variant-numeric:normal;font-feature-settings:normal;text-align:start;writing-mode:lr-tb;text-anchor:start;fill:#6d6e70;fill-opacity:1;stroke-width:1.3770858"
         id="path5853" />
      <path
         inkscape:connector-curvature="0"
         d="m 525.93587,459.07181 h 1.30387 v -8.89 h 3.05223 v -1.09644 h -7.39352 v 1.09644 h 3.03742 z"
         style="font-style:normal;font-variant:normal;font-weight:normal;font-stretch:normal;font-size:14.8166666px;line-height:24.20000076px;font-family:'Myriad Pro';-inkscape-font-specification:'Myriad Pro, Normal';font-variant-ligatures:normal;font-variant-caps:normal;font-variant-numeric:normal;font-feature-settings:normal;text-align:start;writing-mode:lr-tb;text-anchor:start;fill:#6d6e70;fill-opacity:1;stroke-width:1.3770858"
         id="path5855" />
      <path
         inkscape:connector-curvature="0"
         d="m 548.15249,459.07181 h 1.28905 v -4.0005 c 0.29634,0.0741 0.65194,0.0889 1.03717,0.0889 1.25942,0 2.37067,-0.37042 3.05223,-1.09644 0.50377,-0.51858 0.77047,-1.22978 0.77047,-2.1336 0,-0.889 -0.32597,-1.61501 -0.87418,-2.08915 -0.59267,-0.5334 -1.52612,-0.82973 -2.80035,-0.82973 -1.03717,0 -1.85209,0.0889 -2.47439,0.19262 z m 1.28905,-8.93445 c 0.22225,-0.0593 0.65194,-0.10372 1.21497,-0.10372 1.4224,0 2.35585,0.63712 2.35585,1.9558 0,1.37795 -0.94827,2.1336 -2.50402,2.1336 -0.42968,0 -0.78528,-0.0296 -1.0668,-0.10372 z"
         style="font-style:normal;font-variant:normal;font-weight:normal;font-stretch:normal;font-size:14.8166666px;line-height:24.20000076px;font-family:'Myriad Pro';-inkscape-font-specification:'Myriad Pro, Normal';font-variant-ligatures:normal;font-variant-caps:normal;font-variant-numeric:normal;font-feature-settings:normal;text-align:start;writing-mode:lr-tb;text-anchor:start;fill:#6d6e70;fill-opacity:1;stroke-width:1.3770858"
         id="path5857" />
      <path
         inkscape:connector-curvature="0"
         d="m 568.03689,453.32294 h -3.88197 v -3.15595 h 4.10422 v -1.08162 h -5.39327 v 9.98644 h 5.61552 v -1.08162 h -4.32647 v -3.60045 h 3.88197 z"
         style="font-style:normal;font-variant:normal;font-weight:normal;font-stretch:normal;font-size:14.8166666px;line-height:24.20000076px;font-family:'Myriad Pro';-inkscape-font-specification:'Myriad Pro, Normal';font-variant-ligatures:normal;font-variant-caps:normal;font-variant-numeric:normal;font-feature-settings:normal;text-align:start;writing-mode:lr-tb;text-anchor:start;fill:#6d6e70;fill-opacity:1;stroke-width:1.3770858"
         id="path5859" />
      <path
         inkscape:connector-curvature="0"
         d="m 581.02545,448.92239 c -2.667,0 -4.63762,2.07433 -4.63762,5.2451 0,3.0226 1.85208,5.0673 4.48945,5.0673 2.54847,0 4.63762,-1.82245 4.63762,-5.25992 0,-2.96333 -1.76319,-5.05248 -4.48945,-5.05248 z m -0.0593,1.05198 c 2.14842,0 3.18558,2.07434 3.18558,4.05977 0,2.26695 -1.1557,4.14867 -3.2004,4.14867 -2.02988,0 -3.18558,-1.91135 -3.18558,-4.04495 0,-2.19287 1.0668,-4.16349 3.2004,-4.16349 z"
         style="font-style:normal;font-variant:normal;font-weight:normal;font-stretch:normal;font-size:14.8166666px;line-height:24.20000076px;font-family:'Myriad Pro';-inkscape-font-specification:'Myriad Pro, Normal';font-variant-ligatures:normal;font-variant-caps:normal;font-variant-numeric:normal;font-feature-settings:normal;text-align:start;writing-mode:lr-tb;text-anchor:start;fill:#6d6e70;fill-opacity:1;stroke-width:1.3770858"
         id="path5861" />
      <path
         inkscape:connector-curvature="0"
         d="m 594.04391,459.07181 h 1.28905 v -4.0005 c 0.29634,0.0741 0.65194,0.0889 1.03717,0.0889 1.25942,0 2.37067,-0.37042 3.05223,-1.09644 0.50377,-0.51858 0.77047,-1.22978 0.77047,-2.1336 0,-0.889 -0.32597,-1.61501 -0.87418,-2.08915 -0.59267,-0.5334 -1.52612,-0.82973 -2.80035,-0.82973 -1.03717,0 -1.85209,0.0889 -2.47439,0.19262 z m 1.28905,-8.93445 c 0.22225,-0.0593 0.65194,-0.10372 1.21497,-0.10372 1.4224,0 2.35585,0.63712 2.35585,1.9558 0,1.37795 -0.94827,2.1336 -2.50402,2.1336 -0.42968,0 -0.78528,-0.0296 -1.0668,-0.10372 z"
         style="font-style:normal;font-variant:normal;font-weight:normal;font-stretch:normal;font-size:14.8166666px;line-height:24.20000076px;font-family:'Myriad Pro';-inkscape-font-specification:'Myriad Pro, Normal';font-variant-ligatures:normal;font-variant-caps:normal;font-variant-numeric:normal;font-feature-settings:normal;text-align:start;writing-mode:lr-tb;text-anchor:start;fill:#6d6e70;fill-opacity:1;stroke-width:1.3770858"
         id="path5863" />
      <path
         inkscape:connector-curvature="0"
         d="m 608.75717,459.07181 h 5.55625 v -1.08162 h -4.2672 v -8.90482 h -1.28905 z"
         style="font-style:normal;font-variant:normal;font-weight:normal;font-stretch:normal;font-size:14.8166666px;line-height:24.20000076px;font-family:'Myriad Pro';-inkscape-font-specification:'Myriad Pro, Normal';font-variant-ligatures:normal;font-variant-caps:normal;font-variant-numeric:normal;font-feature-settings:normal;text-align:start;writing-mode:lr-tb;text-anchor:start;fill:#6d6e70;fill-opacity:1;stroke-width:1.3770858"
         id="path5865" />
      <path
         inkscape:connector-curvature="0"
         d="m 627.74362,453.32294 h -3.88197 v -3.15595 h 4.10422 v -1.08162 h -5.39327 v 9.98644 h 5.61552 v -1.08162 h -4.32647 v -3.60045 h 3.88197 z"
         style="font-style:normal;font-variant:normal;font-weight:normal;font-stretch:normal;font-size:14.8166666px;line-height:24.20000076px;font-family:'Myriad Pro';-inkscape-font-specification:'Myriad Pro, Normal';font-variant-ligatures:normal;font-variant-caps:normal;font-variant-numeric:normal;font-feature-settings:normal;text-align:start;writing-mode:lr-tb;text-anchor:start;fill:#6d6e70;fill-opacity:1;stroke-width:1.3770858"
         id="path5867" />
    </g>
  </g>
</svg>
