<?xml version="1.0" encoding="UTF-8" standalone="no"?>
<!-- Created with Inkscape (http://www.inkscape.org/) -->

<svg
   xmlns:dc="http://purl.org/dc/elements/1.1/"
   xmlns:cc="http://creativecommons.org/ns#"
   xmlns:rdf="http://www.w3.org/1999/02/22-rdf-syntax-ns#"
   xmlns:svg="http://www.w3.org/2000/svg"
   xmlns="http://www.w3.org/2000/svg"
   xmlns:sodipodi="http://sodipodi.sourceforge.net/DTD/sodipodi-0.dtd"
   xmlns:inkscape="http://www.inkscape.org/namespaces/inkscape"
   width="863.7019mm"
   height="458.41577mm"
   viewBox="0 0 863.70192 458.41577"
   version="1.1"
   id="svg2910"
   sodipodi:docname="footer.svg"
   inkscape:version="0.92.4 (33fec40, 2019-01-16)">
  <defs
     id="defs2904">
    <clipPath
       id="clipPath3291"
       clipPathUnits="userSpaceOnUse">
      <path
         inkscape:connector-curvature="0"
         id="path3289"
         d="M 0,3330.786 H 1536 V 0 H 0 Z" />
    </clipPath>
    <linearGradient
       id="linearGradient3281"
       spreadMethod="pad"
       gradientTransform="matrix(-10.77161,23.737438,23.737438,10.77161,704.97815,3039.2275)"
       gradientUnits="userSpaceOnUse"
       y2="0"
       x2="1"
       y1="0"
       x1="0">
      <stop
         id="stop3277"
         offset="0"
         style="stop-opacity:1;stop-color:#3193a1" />
      <stop
         id="stop3279"
         offset="1"
         style="stop-opacity:1;stop-color:#05707e" />
    </linearGradient>
    <linearGradient
       id="linearGradient3261"
       spreadMethod="pad"
       gradientTransform="matrix(11.768947,24.335789,24.335789,-11.768947,588.13409,3038.1758)"
       gradientUnits="userSpaceOnUse"
       y2="0"
       x2="1"
       y1="0"
       x1="0">
      <stop
         id="stop3257"
         offset="0"
         style="stop-opacity:1;stop-color:#3193a1" />
      <stop
         id="stop3259"
         offset="1"
         style="stop-opacity:1;stop-color:#05707e" />
    </linearGradient>
  </defs>
  <sodipodi:namedview
     id="base"
     pagecolor="#ffffff"
     bordercolor="#666666"
     borderopacity="1.0"
     inkscape:pageopacity="0.0"
     inkscape:pageshadow="2"
     inkscape:zoom="0.35"
     inkscape:cx="1109.1956"
     inkscape:cy="1000.1292"
     inkscape:document-units="mm"
     inkscape:current-layer="layer1"
     showgrid="false"
     inkscape:window-width="1680"
     inkscape:window-height="1022"
     inkscape:window-x="135"
     inkscape:window-y="0"
     inkscape:window-maximized="1" />
  <metadata
     id="metadata2907">
    <rdf:RDF>
      <cc:Work
         rdf:about="">
        <dc:format>image/svg+xml</dc:format>
        <dc:type
           rdf:resource="http://purl.org/dc/dcmitype/StillImage" />
        <dc:title />
      </cc:Work>
    </rdf:RDF>
  </metadata>
  <g
     inkscape:label="Capa 1"
     inkscape:groupmode="layer"
     id="layer1"
     transform="translate(1796.1184,-462.49079)">
    <g
       id="g230"
       transform="matrix(2.656234,0,0,-3.0232892,-182.10356,-136.73553)">
      <path
         d="m 0,0 c -0.515,-0.001 -5.652,-0.09 -4.761,-2.979 0.301,-0.973 1.186,-1.659 2.189,-1.837 10.026,-1.775 11.959,-4.16 11.931,-4.734 -0.028,-0.597 -4.031,-1.062 -0.9,-3.788 3.543,-3.086 14.758,1.117 19.118,-5.829 -8.194,-2.3 -8.441,-10.034 -1.115,-10.723 8.776,-0.824 12.531,-3.356 14.033,-4.506 -8.2,-3.677 -10.637,-8.289 -6.621,-10.697 4.015,-2.408 19.348,-6.573 23.476,-15.057 -8.541,2.44 -17.86,4.848 -19.183,-0.237 -1.321,-5.085 29.896,-19.941 34.398,-32.966 -12.263,5.2 -22.628,5.04 -25.452,1.104 -4.884,-5.692 25.831,-13.349 24.578,-21.776 -4.998,0.709 -15.329,-0.596 -14.987,-5.387 0.387,-5.427 11.475,-1.262 20.199,-8.98 7.413,-6.559 10.449,-6.828 12.648,-5.171 3.324,2.505 -1.609,18.488 -2.42,22.498 C 85.327,-102.145 56.524,0.157 0,0"
         style="fill:#2eadba;fill-opacity:1;fill-rule:nonzero;stroke:none"
         id="path232"
         inkscape:connector-curvature="0" />
    </g>
    <g
       id="g234"
       transform="matrix(2.656234,0,0,-3.0232892,131.74323,24.45544)">
      <path
         d="m 0,0 c 0.089,1.007 -1.139,1.562 -1.833,0.827 -7.874,-8.33 -36.141,-40.653 -35.887,-81.601 0.045,-7.096 6.318,-7.297 8.763,-5.032 3.092,2.865 20.29,26.036 23.254,52.948 C -3.984,-17.257 -0.356,-4.03 0,0"
         style="fill:#1d5f5f;fill-opacity:1;fill-rule:nonzero;stroke:none"
         id="path236"
         inkscape:connector-curvature="0" />
    </g>
    <g
       id="g238"
       transform="matrix(2.656234,0,0,-3.0232892,26.436571,124.86915)">
      <path
         d="m 0,0 c 0.116,0.559 0.87,0.659 1.125,0.148 2.898,-5.785 12.908,-27.862 6.097,-49.952 -1.181,-3.828 -4.604,-2.915 -5.556,-1.292 -1.205,2.052 -6.724,17.379 -3.939,32.408 C -0.659,-9.977 -0.464,-2.236 0,0"
         style="fill:#1d5f5f;fill-opacity:1;fill-rule:nonzero;stroke:none"
         id="path240"
         inkscape:connector-curvature="0" />
    </g>
    <g
       id="g242"
       transform="matrix(2.656234,0,0,-3.0232892,141.87117,-112.40285)">
      <path
         d="m 0,0 c -2.127,-3.036 -8.127,-8.072 -8.416,-9.411 -0.436,-2.017 -3.157,-9.022 -5.505,-11.419 -2.347,-2.398 -3.087,-6.226 -2.104,-7.233 0.981,-1.012 2.702,-4.146 1.172,-7.77 -1.529,-3.623 -0.97,-11.445 -0.604,-12.507 0.368,-1.066 -1.446,-15.222 -6.549,-18.816 -2.923,-2.058 -8.463,-3.442 -10.633,-7.748 -0.938,-1.862 -6.257,1.137 -7.567,3.541 -4.611,8.46 -16.881,18.897 -17.684,19.966 -2.78,3.697 -9.232,3.688 -10.417,5.474 -1.186,1.789 3.624,7.285 5.218,7.691 2.157,0.549 3.336,-1.117 6.55,-0.087 3.214,1.03 6.58,2.353 7.676,4.003 1.098,1.646 5.371,2.366 8.159,3.944 2.788,1.578 7.503,4.539 11.485,9.262 0.737,0.874 3.032,5.014 2.703,7.12 -0.332,2.108 0.155,6.884 2.906,7.908 3.64,1.356 3.535,3.457 5.339,4.302 2.174,1.02 5.161,1.673 7.592,2.142 2.81,0.543 5.62,4.64 7.517,4.659 C -1.262,5.042 2.127,3.036 0,0"
         style="fill:#edeced;fill-opacity:1;fill-rule:nonzero;stroke:none"
         id="path244"
         inkscape:connector-curvature="0" />
    </g>
    <g
       id="g246"
       transform="matrix(2.656234,0,0,-3.0232892,76.587321,43.786634)">
      <path
         d="m 0,0 h -4.926 c -0.089,0 -0.172,-0.047 -0.217,-0.124 l -1.73,-2.93 c -0.1,-0.168 -0.346,-0.163 -0.438,0.01 l -3.931,7.345 c -0.044,0.082 -0.129,0.133 -0.222,0.133 h -5.241 c -0.195,0 -0.316,-0.214 -0.215,-0.381 l 9.607,-15.965 c 0.097,-0.162 0.331,-0.163 0.429,-0.002 L 0.214,-0.383 C 0.317,-0.216 0.196,0 0,0"
         style="fill:#ffffff;fill-opacity:1;fill-rule:nonzero;stroke:none"
         id="path248"
         inkscape:connector-curvature="0" />
    </g>
    <g
       id="g250"
       transform="matrix(2.656234,0,0,-3.0232892,49.986194,-30.700271)">
      <path
         d="m 0,0 c -1.066,2.068 -2.481,8.321 10.31,8.608 -5.876,8.093 -14.374,0.158 -14.374,0.158 0,0 5.029,8.347 11.391,10.585 -4.957,1.026 -12.421,0.75 -16.005,-10.509 -2.439,4.345 -5.685,6.056 -13.551,3.441 5.113,0.394 12.489,-7.656 11.061,-5.791 -1.428,1.865 -4.966,1.72 -9.33,-2.381 8.659,0.862 14.777,-7.322 14.777,-7.322 z"
         style="fill:#da9680;fill-opacity:1;fill-rule:nonzero;stroke:none"
         id="path252"
         inkscape:connector-curvature="0" />
    </g>
    <g
       id="g254"
       transform="matrix(2.656234,0,0,-3.0232892,-257.01653,93.056875)">
      <path
         d="m 0,0 c 3.532,2.734 7.356,4.777 11.682,2.521 1.853,-0.965 3.545,-2.125 5.608,-2.616 4.702,-1.119 8.113,1.677 12.116,3.601 3.092,1.487 5.772,1.677 8.657,-0.3 1.547,-1.06 2.898,-2.243 4.655,-2.972 4.449,-1.846 9.375,-1.775 13.913,-0.336 3.973,1.26 2.276,7.538 -1.728,6.269 C 51.964,5.234 48.878,4.946 45.905,5.962 43.219,6.88 41.452,9.208 38.901,10.357 34.719,12.241 30.056,11.077 26.125,9.119 22.56,7.343 20.549,5.641 16.306,7.347 13.961,8.29 12.273,9.696 9.666,10.064 4.174,10.84 -0.464,7.794 -4.596,4.596 -7.899,2.04 -3.269,-2.53 0,0"
         style="fill:#ffffff;fill-opacity:1;fill-rule:nonzero;stroke:none"
         id="path256"
         inkscape:connector-curvature="0" />
    </g>
    <g
       id="g258"
       transform="matrix(2.656234,0,0,-3.0232892,-132.26678,110.13061)">
      <path
         d="m 0,0 c -4.045,3.131 -8.463,6.043 -13.83,5.526 -2.385,-0.23 -4.348,-1.243 -6.4,-2.382 -4.093,-2.27 -6.787,-0.48 -10.491,1.378 -3.793,1.904 -8.299,3.051 -12.388,1.403 C -45.52,4.953 -47.224,2.884 -49.558,1.798 -52.77,0.304 -56.192,0.521 -59.5,1.57 c -3.996,1.267 -5.707,-5.006 -1.727,-6.268 4.299,-1.363 8.909,-1.503 13.184,0.066 1.692,0.621 3.105,1.521 4.541,2.598 3.237,2.429 5.838,2.705 9.501,0.944 3.715,-1.786 6.993,-4.488 11.377,-3.769 2.367,0.388 4.263,1.698 6.346,2.784 4.278,2.23 8.177,0.192 11.682,-2.521 C -1.328,-7.125 3.305,-2.558 0,0"
         style="fill:#ffffff;fill-opacity:1;fill-rule:nonzero;stroke:none"
         id="path260"
         inkscape:connector-curvature="0" />
    </g>
    <g
       id="g5774"
       inkscape:export-xdpi="96"
       inkscape:export-ydpi="96">
      <g
         transform="matrix(0.67742122,0,0,-0.67742122,-1456.0256,49.474789)"
         id="g3213">
        <path
           inkscape:connector-curvature="0"
           id="path3215"
           style="fill:#404041;fill-opacity:1;fill-rule:nonzero;stroke:none"
           d="m 0,0 h 3.402 c 0.4,0 0.724,-0.324 0.724,-0.724 v -32.062 c 0,-0.4 0.324,-0.724 0.724,-0.724 h 14.61 c 0.4,0 0.724,-0.324 0.724,-0.724 v -2.622 c 0,-0.4 -0.324,-0.725 -0.724,-0.725 H 0 c -0.4,0 -0.725,0.325 -0.725,0.725 V -0.724 C -0.725,-0.324 -0.4,0 0,0" />
      </g>
      <g
         transform="matrix(0.67742122,0,0,-0.67742122,-1428.2354,64.01651)"
         id="g3217">
        <path
           inkscape:connector-curvature="0"
           id="path3219"
           style="fill:#404041;fill-opacity:1;fill-rule:nonzero;stroke:none"
           d="m 0,0 c 0.419,0 0.749,0.353 0.727,0.771 -0.168,3.089 -1.706,7.202 -6.789,7.202 -4.545,0 -6.751,-3.837 -7.39,-7.095 C -13.541,0.424 -13.203,0 -12.74,0 Z m -12.884,-3.513 c -0.414,0 -0.756,-0.351 -0.728,-0.764 0.413,-6.082 4.509,-8.602 9.223,-8.602 3.042,0 5.038,0.458 6.713,1.088 0.407,0.153 0.852,-0.087 0.953,-0.51 l 0.5,-2.102 c 0.085,-0.355 -0.108,-0.71 -0.447,-0.846 -1.779,-0.709 -4.548,-1.423 -8.388,-1.423 -8.307,0 -13.27,5.464 -13.27,13.605 0,8.141 4.795,14.553 12.657,14.553 8.81,0 11.151,-7.75 11.151,-12.713 0,-0.647 -0.046,-1.2 -0.094,-1.647 -0.039,-0.367 -0.35,-0.639 -0.719,-0.639 z" />
      </g>
      <g
         transform="matrix(0.67742122,0,0,-0.67742122,-1410.7733,66.090513)"
         id="g3221">
        <path
           inkscape:connector-curvature="0"
           id="path3223"
           style="fill:#404041;fill-opacity:1;fill-rule:nonzero;stroke:none"
           d="m 0,0 c 0,0.398 -0.32,0.727 -0.718,0.728 -5.163,0.01 -10.712,-1.078 -10.712,-6.086 0,-3.179 2.119,-4.684 4.628,-4.684 3.512,0 5.743,2.23 6.523,4.517 C -0.111,-5.024 0,-4.466 0,-3.964 Z m 1.371,-13.053 c -0.368,0 -0.678,0.277 -0.72,0.642 l -0.317,2.76 H 0.167 c -1.504,-2.119 -4.404,-4.015 -8.251,-4.015 -5.465,0 -8.253,3.848 -8.253,7.75 0,6.524 5.799,10.092 16.226,10.037 v 0.557 c 0,2.231 -0.614,6.245 -6.133,6.245 -2.205,0 -4.495,-0.603 -6.304,-1.581 -0.387,-0.208 -0.867,-0.006 -1.01,0.409 l -0.636,1.843 c -0.111,0.324 0.01,0.689 0.306,0.861 2.2,1.275 5.212,2.092 8.368,2.092 8.252,0 10.26,-5.631 10.26,-11.04 V -6.585 c 0,-2 0.081,-3.959 0.313,-5.635 0.061,-0.441 -0.269,-0.833 -0.713,-0.833 z" />
      </g>
      <g
         transform="matrix(0.67742122,0,0,-0.67742122,-1402.1977,61.598955)"
         id="g3225">
        <path
           inkscape:connector-curvature="0"
           id="path3227"
           style="fill:#404041;fill-opacity:1;fill-rule:nonzero;stroke:none"
           d="m 0,0 c 0,2.467 -0.043,4.542 -0.169,6.533 -0.027,0.418 0.301,0.771 0.72,0.771 h 2.895 c 0.382,0 0.699,-0.298 0.723,-0.679 L 4.405,2.843 h 0.112 c 1.338,2.565 4.461,5.074 8.921,5.074 3.736,0 9.534,-2.23 9.534,-11.486 v -15.389 c 0,-0.401 -0.324,-0.725 -0.724,-0.725 H 18.79 c -0.4,0 -0.725,0.324 -0.725,0.725 v 14.832 c 0,4.349 -1.617,7.973 -6.244,7.973 -3.235,0 -5.743,-2.286 -6.58,-5.018 -0.223,-0.614 -0.334,-1.45 -0.334,-2.287 v -15.5 c 0,-0.401 -0.324,-0.725 -0.724,-0.725 H 0.724 c -0.4,0 -0.724,0.324 -0.724,0.725 z" />
      </g>
      <g
         transform="matrix(0.67742122,0,0,-0.67742122,-1359.666,63.752591)"
         id="g3229">
        <path
           inkscape:connector-curvature="0"
           id="path3231"
           style="fill:#404041;fill-opacity:1;fill-rule:nonzero;stroke:none"
           d="M 0,0 C -0.278,5.241 -0.613,11.542 -0.556,16.226 H -0.725 C -2.007,11.821 -3.568,7.137 -5.463,1.952 l -6.463,-17.757 c -0.104,-0.286 -0.376,-0.476 -0.68,-0.476 h -2.654 c -0.31,0 -0.586,0.198 -0.686,0.491 l -5.91,17.407 c -1.785,5.298 -3.29,10.149 -4.349,14.609 h -0.112 c -0.112,-4.684 -0.39,-10.985 -0.725,-16.616 l -0.961,-15.435 c -0.024,-0.381 -0.34,-0.679 -0.723,-0.679 h -3.17 c -0.42,0 -0.752,0.356 -0.723,0.775 l 2.519,36.132 c 0.027,0.38 0.343,0.674 0.723,0.674 h 5.001 c 0.307,0 0.581,-0.194 0.683,-0.483 l 6.242,-17.695 c 1.561,-4.627 2.844,-8.753 3.791,-12.657 h 0.167 c 0.949,3.793 2.287,7.919 3.959,12.657 l 6.516,17.704 c 0.105,0.285 0.376,0.474 0.68,0.474 h 5.004 c 0.382,0 0.699,-0.298 0.722,-0.68 L 5.64,-15.734 c 0.026,-0.417 -0.306,-0.77 -0.723,-0.77 H 1.633 c -0.384,0 -0.701,0.3 -0.723,0.683 z" />
      </g>
      <g
         transform="matrix(0.67742122,0,0,-0.67742122,-1350.4098,74.441831)"
         id="g3233">
        <path
           inkscape:connector-curvature="0"
           id="path3235"
           style="fill:#404041;fill-opacity:1;fill-rule:nonzero;stroke:none"
           d="m 0,0 v 25.538 c 0,0.4 0.325,0.724 0.725,0.724 h 3.458 c 0.4,0 0.724,-0.324 0.724,-0.724 V 0 c 0,-0.4 -0.324,-0.725 -0.724,-0.725 H 0.725 C 0.325,-0.725 0,-0.4 0,0 m 5.463,33.844 c 0.056,-1.672 -1.17,-3.011 -3.121,-3.011 -1.728,0 -2.955,1.339 -2.955,3.011 0,1.73 1.282,3.068 3.066,3.068 1.84,0 3.01,-1.338 3.01,-3.068" />
      </g>
      <g
         transform="matrix(0.67742122,0,0,-0.67742122,-1341.5705,61.598955)"
         id="g3237">
        <path
           inkscape:connector-curvature="0"
           id="path3239"
           style="fill:#404041;fill-opacity:1;fill-rule:nonzero;stroke:none"
           d="m 0,0 c 0,2.467 -0.043,4.542 -0.17,6.533 -0.027,0.418 0.301,0.771 0.72,0.771 h 2.895 c 0.382,0 0.699,-0.298 0.722,-0.679 L 4.404,2.843 h 0.112 c 1.338,2.565 4.46,5.074 8.922,5.074 3.735,0 9.534,-2.23 9.534,-11.486 v -15.389 c 0,-0.401 -0.325,-0.725 -0.725,-0.725 h -3.458 c -0.4,0 -0.724,0.324 -0.724,0.725 v 14.832 c 0,4.349 -1.617,7.973 -6.245,7.973 -3.234,0 -5.743,-2.286 -6.579,-5.018 -0.223,-0.614 -0.334,-1.45 -0.334,-2.287 v -15.5 c 0,-0.401 -0.324,-0.725 -0.724,-0.725 H 0.724 c -0.4,0 -0.724,0.324 -0.724,0.725 z" />
      </g>
      <g
         transform="matrix(0.67742122,0,0,-0.67742122,-1308.1417,64.09259)"
         id="g3241">
        <path
           inkscape:connector-curvature="0"
           id="path3243"
           style="fill:#404041;fill-opacity:1;fill-rule:nonzero;stroke:none"
           d="m 0,0 c 0,0.613 -0.056,1.45 -0.223,2.063 -0.724,3.123 -3.401,5.687 -7.081,5.687 -5.073,0 -8.084,-4.46 -8.084,-10.425 0,-5.465 2.677,-9.981 7.973,-9.981 3.29,0 6.301,2.175 7.192,5.854 C -0.056,-6.133 0,-5.463 0,-4.683 Z m 4.183,23.585 c 0.4,0 0.724,-0.324 0.724,-0.724 V -9.032 c 0,-2.084 0.042,-4.42 0.163,-6.203 0.029,-0.417 -0.305,-0.767 -0.722,-0.767 H 1.416 c -0.387,0 -0.706,0.304 -0.724,0.69 l -0.19,3.994 H 0.391 c -1.505,-3.012 -4.796,-5.297 -9.2,-5.297 -6.524,0 -11.542,5.52 -11.542,13.716 -0.055,8.977 5.52,14.497 12.1,14.497 4.126,0 6.914,-1.952 8.14,-4.126 H 0 v 15.389 c 0,0.4 0.324,0.724 0.724,0.724 z" />
      </g>
      <g
         transform="matrix(0.67742122,0,0,-0.67742122,-1968.2228,2143.2222)"
         id="g3245">
        <g
           id="g3247">
          <g
             id="g3253">
            <g
               id="g3255">
              <path
                 inkscape:connector-curvature="0"
                 id="path3263"
                 style="fill:url(#linearGradient3261);stroke:none"
                 d="m 594.301,3090.811 -27.372,-56.966 c -0.597,-1.242 0.309,-2.68 1.686,-2.68 v 0 h 34.245 c 0.718,0 1.373,0.412 1.684,1.059 v 0 l 10.944,22.745 c 0.256,0.531 0.246,1.152 -0.027,1.674 v 0 l -17.817,34.221 c -0.35,0.673 -1.004,1.007 -1.658,1.007 v 0 c -0.674,0 -1.347,-0.355 -1.685,-1.06" />
            </g>
          </g>
        </g>
      </g>
      <g
         transform="matrix(0.67742122,0,0,-0.67742122,-1968.2228,2143.2222)"
         id="g3265">
        <g
           id="g3267">
          <g
             id="g3273">
            <g
               id="g3275">
              <path
                 inkscape:connector-curvature="0"
                 id="path3283"
                 style="fill:url(#linearGradient3281);stroke:none"
                 d="m 696.192,3090.864 -17.817,-34.221 c -0.273,-0.522 -0.283,-1.143 -0.026,-1.674 v 0 l 10.943,-22.745 c 0.311,-0.647 0.967,-1.059 1.685,-1.059 v 0 h 34.245 c 1.377,0 2.282,1.438 1.685,2.68 v 0 l -27.371,56.966 c -0.339,0.704 -1.012,1.059 -1.686,1.059 v 0 c -0.653,0 -1.308,-0.334 -1.658,-1.006" />
            </g>
          </g>
        </g>
      </g>
      <g
         transform="matrix(0.67742122,0,0,-0.67742122,-1968.2228,2143.2222)"
         id="g3287"
         clip-path="url(#clipPath3291)">
        <g
           id="g3293"
           transform="translate(702.3022,3110.4231)">
          <path
             d="m 0,0 h -38.357 c -0.956,0 -1.841,-0.505 -2.327,-1.328 l -12.752,-21.596 c -1.072,-1.815 -3.716,-1.76 -4.71,0.099 l -30.128,56.292 c -0.47,0.879 -1.386,1.428 -2.383,1.428 h -39.531 c -2.103,0 -3.4,-2.296 -2.316,-4.097 l 74.335,-123.53 c 1.044,-1.735 3.556,-1.748 4.618,-0.023 L 1.685,-3.016 C 2.497,-1.697 1.548,0 0,0"
             style="fill:#3ab2c1;fill-opacity:1;fill-rule:nonzero;stroke:none"
             id="path3295"
             inkscape:connector-curvature="0" />
        </g>
      </g>
      <g
         id="g5702">
        <text
           style="font-variant:normal;font-weight:normal;font-stretch:normal;font-size:10.65779972px;font-family:'Myriad Pro';-inkscape-font-specification:MyriadPro-Regular;writing-mode:lr-tb;fill:#6d6e70;fill-opacity:1;fill-rule:nonzero;stroke:none;stroke-width:0.67742121"
           id="text3299"
           x="-1457.342"
           y="89.898949">
          <tspan
             x="-1457.342 -1447.2917 -1437.2948 -1427.2976 -1419.9438 -1408.9557 -1401.6018 -1391.5515 -1379.7321 -1369.6283 -1362.5623 -1352.0856 -1342.0353 -1329.8855 -1319.4088 -1309.5717 -1299.5214"
             y="89.898949"
             sodipodi:role="line"
             id="tspan3297"
             style="stroke-width:0.67742121">EFFICIENT PEOPLE</tspan>
        </text>
      </g>
    </g>
    <g
       id="g142"
       transform="matrix(0,-1.3473456,1.3473456,0,-1652.8863,514.43729)"
       style="fill:#fbd84b;fill-opacity:1">
      <path
         d="m 0,0 c -8.717,0.147 -16.878,-5.062 -22.176,-11.986 -5.298,-6.924 -8.132,-15.4 -10.305,-23.843 -2.191,-8.509 -3.716,-17.917 0.21,-25.778 2.766,-5.539 7.97,-9.568 13.651,-12.029 14.296,-6.193 32.284,-2.513 42.998,8.797 10.715,11.311 13.418,29.47 6.461,43.411 C 23.883,-7.488 7.747,1.271 -7.733,-0.49 Z"
         style="fill:#fbd84b;fill-opacity:1;fill-rule:nonzero;stroke:none"
         id="path144"
         inkscape:connector-curvature="0" />
    </g>
    <g
       id="g146"
       transform="matrix(-2.5244285,0,0,-1.6809283,-1010.857,584.37964)">
      <path
         d="m 0,0 c 0,0 80.383,61.6 88.756,64.502 8.373,2.902 21.77,14.625 36.842,2.902 15.072,-11.722 36.842,-35.167 46.89,-33.911 10.048,1.256 29.23,12.772 37.261,10.048 8.031,-2.725 39.232,-3.941 55.56,-8.546 16.327,-4.606 45.756,8.069 45.756,8.069 0,0 -21.352,-162.382 -22.608,-162.382 -1.256,0 -304.664,14.653 -304.664,14.653 z"
         style="fill:#0e717f;fill-opacity:1;fill-rule:nonzero;stroke:none"
         id="path148"
         inkscape:connector-curvature="0" />
    </g>
    <g
       id="g150"
       transform="matrix(-2.023452,0,0,-1.3473456,-1447.0013,616.95407)">
      <path
         d="m -42.54527,-7.6683789 c 0,0 33.4839368,32.7341369 39.0793548,37.5311009 5.596667,4.796965 12.79149,20.38554 15.9890502,25.581733 3.197561,5.196191 10.392383,10.392383 13.990419,13.989171 3.596788,3.598035 13.608658,9.426752 13.608658,9.426752 h 4.517505 c 0,0 -7.334551,-4.629788 -10.132885,-8.226575 C 31.709746,67.035767 23.314747,62.24005 22.115817,57.443086 20.916888,52.646121 17.318852,50.64749 14.521767,44.252368 11.723433,37.857248 5.7275398,26.265934 3.3296808,23.067127 c -2.39785803,-3.197561 -5.629104,-9.928282 -5.629104,-9.928282 0,0 -16.6190808,-24.245568 -17.8167618,-24.646043 -1.200177,-0.399227 -22.429085,3.8388191 -22.429085,3.8388191"
         style="fill:#f6efe5;fill-opacity:1;fill-rule:nonzero;stroke:none;stroke-width:1.24758506"
         id="path152"
         inkscape:connector-curvature="0" />
    </g>
    <g
       id="g154"
       transform="matrix(-2.5244285,0,0,-1.6809283,-994.64611,652.70772)">
      <path
         d="m 0,0 c 0,0 52.45,13.298 74.434,13.377 21.983,0.079 48.77,22.812 73.887,13.536 26.171,-9.666 42.19,32.231 85.492,30.292 27.936,-1.251 83.673,23.533 83.673,23.533 V -159.554 H -24.651 Z"
         style="fill:#75c7ca;fill-opacity:1;fill-rule:nonzero;stroke:none"
         id="path156"
         inkscape:connector-curvature="0" />
    </g>
  </g>
</svg>
